<svg xmlns="http://www.w3.org/2000/svg" width="1280" height="720" viewBox="0 0 1280 720">
  <rect width="1280" height="720" fill="#000"/>
  <g font-family="Arial, sans-serif" font-weight="700" font-size="38" fill="#111" text-anchor="middle" dominant-baseline="middle">
    <rect x="30" y="30" width="290" height="320" rx="14" fill="#24d959"/>
    <text x="175" y="190">Empfang</text>

    <rect x="340" y="30" width="290" height="320" rx="14" fill="#f4d134"/>
    <text x="485" y="190">Büro 1</text>

    <rect x="650" y="30" width="290" height="320" rx="14" fill="#e33a3a"/>
    <text x="795" y="190">Vertrieb</text>

    <rect x="960" y="30" width="290" height="320" rx="14" fill="#24d959"/>
    <text x="1105" y="190">Support</text>

    <rect x="30" y="370" width="290" height="320" rx="14" fill="#24d959"/>
    <text x="175" y="530">Lager</text>

    <rect x="340" y="370" width="290" height="320" rx="14" fill="#e33a3a"/>
    <text x="485" y="530">Chef</text>

    <rect x="650" y="370" width="290" height="320" rx="14" fill="#f4d134"/>
    <text x="795" y="530">Besprechung</text>

    <rect x="960" y="370" width="290" height="320" rx="14" fill="#24d959"/>
    <text x="1105" y="530">Homeoffice</text>
  </g>
</svg>
